<svg xmlns="http://www.w3.org/2000/svg" version="1.1" xmlns:xlink="http://www.w3.org/1999/xlink" xmlns:svgjs="http://svgjs.dev/svgjs" width="2000" height="1247" viewBox="0 0 2000 1247"><g transform="matrix(1,0,0,1,-1.2121212121212466,0.5048582995951847)"><svg viewBox="0 0 396 247" data-background-color="#ffffff" preserveAspectRatio="xMidYMid meet" height="1247" width="2000" xmlns="http://www.w3.org/2000/svg" xmlns:xlink="http://www.w3.org/1999/xlink"><g id="tight-bounds" transform="matrix(1,0,0,1,0.2400000000000091,-0.09999999999999432)"><svg viewBox="0 0 395.52 247.2" height="247.2" width="395.52"><g><svg></svg></g><g><svg viewBox="0 0 395.52 247.2" height="247.2" width="395.52"><mask id="de928976-db63-4105-914d-076539200fe4"><rect width="395.52" height="247.2" fill="white"></rect><g transform="matrix(1,0,0,1,0,102.05406229465106)" id="clone"><svg viewBox="0 0 395.52 43.09187541069785" height="43.09187541069785" width="395.52"><g><svg viewBox="0 0 395.52 43.09187541069785" height="43.09187541069785" width="395.52"><g><svg viewBox="0 0 395.52 43.09187541069785" height="43.09187541069785" width="395.52"><g><svg viewBox="0 0 395.52 43.09187541069785" height="43.09187541069785" width="395.52"><g id="SvgjsG1118"><svg viewBox="0 0 395.52 43.09187541069785" height="43.09187541069785" width="395.52" id="SvgjsSvg1117"><g><svg viewBox="0 0 395.52 43.09187541069785" height="43.09187541069785" width="395.52"><g transform="matrix(1,0,0,1,0,0)"><svg width="395.52" viewBox="-0.2999999523162842 -37.75 381.42999267578125 42.45000076293945" height="43.09187541069785" data-palette-color="#1e55b3"><path d="M29.75 1.7Q29.55 1.7 29.4 1.65L29.4 1.65Q28.65 1.2 28.15 0.65L28.15 0.65Q28 0.4 27.95 0.4L27.95 0.4Q27.9 0.3 27.8 0.3L27.8 0.3 27.7 0.25Q27.5 0.05 27.5 0.05L27.5 0.05 23.25-6.25Q22.95-6.9 22.4-7.65L22.4-7.65Q22.05-8 21.8-8.4L21.8-8.4Q21.6-8.7 21.4-8.7L21.4-8.7Q21.25-8.7 21.18-8.55 21.1-8.4 21.05-8.15L21.05-8.15Q20.9-6.8 20.9-4.5L20.9-4.5Q20.9-2.3 20.65-0.95L20.65-0.95Q20.5-0.3 20.2-0.3L20.2-0.3 19.9-0.3Q19.8-0.35 19.73-0.38 19.65-0.4 19.65-0.4L19.65-0.4Q17.9-0.25 14.4-0.05L14.4-0.05Q11 0.15 9.2 0.15L9.2 0.15Q8.7 0.15 8.4 0.05L8.4 0.05 7.3 0.05 6.4 0.05 5.95 0.05 4.15-0.55 4-0.95Q4-1 3.98-1.15 3.95-1.3 3.95-1.55L3.95-1.55Q3.95-1.85 3.85-2.65L3.85-2.65Q3.6-5.7 3.65-5.05L3.65-5.05Q3.55-6.35 3.3-9.55L3.3-9.55 3.15-11.4Q3.15-12.3 3.1-13 3.05-13.7 3-14.2L3-14.2 2.9-15.3Q2.75-17.35 2.75-19.15L2.75-19.15Q2.75-19.2 2.78-19.3 2.8-19.4 2.8-19.7L2.8-19.7Q2.9-20 2.9-20.65L2.9-20.65 2.95-21.55 3-22.15Q3-23.2 2.9-25.2L2.9-25.2Q2.7-26.45 2.7-28.4L2.7-28.4Q2.7-31.2 3.05-32.5L3.05-32.5Q3.5-34.3 4.55-34.3L4.55-34.3Q10.2-34.3 16.05-34.15L16.05-34.15Q17.35-34.15 19.95-34.05L19.95-34.05 21.9-34Q25.9-33.9 27.45-33.9L27.45-33.9Q33.9-33.6 37.2-30.65L37.2-30.65Q38.7-29.4 39.43-27.65 40.15-25.9 40.15-23.9L40.15-23.9Q40.15-21.6 39.3-19.65L39.3-19.65Q38.6-18.1 37.3-16.8L37.3-16.8Q36.05-15.55 34.45-14.8L34.45-14.8Q34.75-14.65 35.25-14.15L35.25-14.15Q35.45-13.9 35.95-13.5L35.95-13.5 36.65-13Q36.8-12.75 37-12.53 37.2-12.3 37.4-12.05L37.4-12.05 39.75-9.15Q41.35-7.1 41.8-6.15L41.8-6.15Q42.15-5.5 42.15-5.15L42.15-5.15Q42.15-4.65 41.75-4.25 41.35-3.85 40.55-3.25L40.55-3.25Q39.95-2.8 39.15-2.4L39.15-2.4Q38.4-2 38-1.65L38-1.65 36.15-0.65Q35.15-0.1 34 0.3L34 0.3Q33.95 0.3 33.88 0.35 33.8 0.4 33.65 0.45L33.65 0.45Q33.35 0.6 32 1L32 1Q31.75 1.15 31.15 1.25L31.15 1.25Q31 1.35 30.8 1.4 30.6 1.45 30.5 1.45L30.5 1.45 30.25 1.45Q30.2 1.7 30.05 1.7L30.05 1.7 29.9 1.7 29.75 1.7ZM20.8-15.95L21.55-15.95Q23.1-15.95 24-17.5L24-17.5Q24.85-18.9 24.95-20.7L24.95-20.7Q25.05-21.75 25.05-23.2L25.05-23.2 25.05-23.75Q25.05-24.9 24.65-26.15L24.65-26.15Q24.25-27.75 23-28.45L23-28.45Q22.45-28.9 21.55-28.9L21.55-28.9Q21.3-28.9 21.15-28.3L21.15-28.3Q20.7-27.2 20.65-24.8L20.65-24.8Q20.45-23.8 20.45-22.45L20.45-22.45 20.4-20.95Q20.3-18.05 20.3-16.15L20.3-16.15Q20.3-16.1 20.35-16.05 20.4-16 20.45-16L20.45-16 20.8-15.95ZM56.9 1.15Q52.15 1.15 49.7-1.05L49.7-1.05Q47.65-2.8 46.9-6.65L46.9-6.65Q46.4-9.2 46.4-14.3L46.4-14.3Q46.4-18 46.8-22.4L46.8-22.4Q46.8-23.1 46.9-24.4L46.9-24.4Q46.95-25.45 47-27.38 47.05-29.3 47.05-30.75L47.05-30.75Q47.05-31.5 46.95-31.8L46.95-31.8Q46.85-32.5 46.85-32.9L46.85-32.9Q46.85-33.7 48.55-33.7L48.55-33.7 51.55-33.7Q54.75-33.8 57.7-33.5L57.7-33.5Q59.75-33.3 60.85-33.05L60.85-33.05Q62.2-32.7 62.65-32.05L62.65-32.05Q63.05-31.3 63.05-29.45L63.05-29.45Q63.05-27.2 63-25.33 62.95-23.45 62.9-22L62.9-22Q62.85-21.65 62.85-20.9L62.85-20.9Q62.85-19.9 62.75-17.5L62.75-17.5Q62.65-13.1 62.65-10.15L62.65-10.15Q62.65-8.3 62.8-7.45L62.8-7.45Q62.95-6.65 63.6-6.65L63.6-6.65Q64.95-6.65 66.55-7.3L66.55-7.3Q67.55-7.8 67.95-8.05L67.95-8.05 67.95-28.15Q67.8-29.3 67.8-30.4L67.8-30.4Q67.7-30.7 67.7-31.25L67.7-31.25 67.7-31.7Q67.7-32.6 68.05-32.95L68.05-32.95Q68.4-33.25 69.7-33.25L69.7-33.25Q71.15-33.25 73.45-33.4L73.45-33.4Q74.25-33.4 75.65-33.5L75.65-33.5Q76.65-33.5 77.1-33.65L77.1-33.65Q77.4-33.65 77.8-33.55L77.8-33.55Q78.4-33.55 78.8-33.5L78.8-33.5 80.3-33.45Q81.4-33.4 83.05-33.05L83.05-33.05 84.45-32.65Q84.9-32.5 85.02-32.3 85.15-32.1 85.15-31.8L85.15-31.8Q85.15-24.4 84.85-16.95L84.85-16.95Q84.55-7.15 84.55-2.15L84.55-2.15Q84.55-0.15 82.65-0.15L82.65-0.15 80.1-0.15Q79.1-0.05 76.45 0.05L76.45 0.05Q74.95 0.15 74.1 0.15L74.1 0.15 71.8 0.25Q70.45 0.25 69.75-0.2 69.05-0.65 68.8-1.75L68.8-1.75Q66.1-0.4 63.1 0.4L63.1 0.4Q60.1 1.15 56.9 1.15L56.9 1.15ZM97.2 0.15Q96.7 0.15 96.35 0.05L96.35 0.05 95.35 0.05 94.55 0.05 94.1 0.05 91.85-0.5 91.7-0.9Q91.65-0.9 91.65-1.45L91.65-1.45Q91.55-2.95 91.55-4.9L91.55-4.9Q91.55-6.3 91.45-7.15L91.45-7.15Q91.45-8.55 91.4-9.25L91.4-9.25 91.4-11Q91.15-13.3 91.1-16.05 91.05-18.8 91.05-21.4L91.05-21.4 91.15-26.5Q91.2-27.35 91.2-29.1L91.2-29.1Q91.2-30.85 91.15-31.7L91.15-31.7Q91-32.85 91.8-33.4L91.8-33.4Q92.3-33.65 93.55-33.65L93.55-33.65Q95.4-33.65 98.3-33.75L98.3-33.75 99.4-33.85Q102.4-34.05 103.15-34.05L103.15-34.05Q103.85-34.05 104.15-34L104.15-34Q104.85-33.95 105.1-33.8 105.35-33.65 105.57-33.3 105.8-32.95 105.9-32.75L105.9-32.75Q106.5-31.95 107.1-31.05L107.1-31.05Q108-29.7 108.55-28.95L108.55-28.95 111.85-23.9 113.45-21.5Q113.45-22.8 113.55-23.55L113.55-23.55 113.55-28.2 113.7-31.75Q113.75-32.15 113.8-32.3 113.85-32.45 113.95-32.52 114.05-32.6 114.1-32.65L114.1-32.65Q114.7-33.15 115.3-33.4L115.3-33.4Q115.8-33.5 116.1-33.5L116.1-33.5 118.95-33.5 119.55-33.5Q119.95-33.45 120.95-33.45L120.95-33.45Q122.05-33.45 122.7-33.4L122.7-33.4 124.4-33.4 125.8-33.4 126.4-33.4Q127.7-33.4 128.15-33L128.15-33Q128.7-32.6 128.7-31.25L128.7-31.25 128.65-30.75 128.6-29.95Q128.55-29.65 128.55-29.15L128.55-29.15 128.55-28.55 128.55-28.15 128.65-27.65 128.65-26.05Q128.6-25.2 128.6-23.15L128.6-23.15 128.6-19.45Q128.55-18.15 128.55-15.8L128.55-15.8 128.55-12.9 128.55-11.2 128.55-3.3 128.35-1.4Q128.15-0.25 127.55 0L127.55 0 126.7 0.05 125.85 0 123.6 0 120.65 0 117.6 0 116.85 0Q115.85 0.1 114.9-0.25L114.9-0.25Q114.45-0.45 113.9-0.9L113.9-0.9 108.8-8.05Q108.8-8.1 107.7-9.9L107.7-9.9Q107.3-10.5 106.95-10.95L106.95-10.95Q106.85-11.15 106.72-11.28 106.6-11.4 106.55-11.4L106.55-11.4Q106.1-11.4 106.1-11L106.1-11 106.1-9.9Q106.05-9.4 106.05-8.25L106.05-8.25 106.05-6.3 106.05-4.4Q105.95-3.8 105.95-2.9L105.95-2.9 105.95-1.9 105.95-1.15 106-0.9Q106-0.5 105.6-0.4L105.6-0.4Q105.35-0.2 104.8-0.3L104.8-0.3Q103.1-0.2 102.1-0.1L102.1-0.1Q101.5-0.05 100 0.05 98.5 0.15 97.2 0.15L97.2 0.15ZM148.94 1.15Q145.04 1.15 141.94-0.65L141.94-0.65Q138.44-2.35 136.19-6.25L136.19-6.25Q133.69-10.65 133.69-16.65L133.69-16.65Q133.69-20.9 135.19-24.3 136.69-27.7 139.49-30.05L139.49-30.05Q142.24-32.35 145.94-33.55 149.64-34.75 153.99-34.75L153.99-34.75Q160.39-34.75 167.19-31.5L167.19-31.5 165.24-23Q164.89-23.1 164.42-23.25 163.94-23.4 163.34-23.55L163.34-23.55Q160.59-24.25 159.29-24.45L159.29-24.45Q158.09-24.65 157.34-24.65L157.34-24.65Q154.19-24.65 152.54-22.95L152.54-22.95Q150.59-21 150.59-16.4L150.59-16.4Q150.59-12.2 151.84-10.4L151.84-10.4Q152.89-8.7 154.94-8.7L154.94-8.7Q156.24-8.7 157.94-9.4L157.94-9.4Q157.94-10.2 157.84-11.8L157.84-11.8 157.79-12.9Q157.74-14.05 157.74-16.3L157.74-16.3 157.74-17.65Q157.74-18.1 157.89-18.28 158.04-18.45 158.44-18.45L158.44-18.45Q158.59-18.4 159.29-18.4L159.29-18.4 164.59-18.4Q166.94-18.4 167.69-18.45L167.69-18.45Q169.04-18.45 169.44-18.4L169.44-18.4Q170.09-18.25 170.32-17.93 170.54-17.6 170.54-16.9L170.54-16.9Q170.54-16.65 170.59-16.45L170.59-16.45 170.59-16 170.59-15.2 170.59-13.7 170.59-8.65 170.59-8.4Q170.54-8.2 170.49-7.95 170.44-7.7 170.44-7.4L170.44-7.4 170.44-7.15Q170.44-4 170.34-2.75L170.34-2.75Q170.24-0.7 169.99-0.15L169.99-0.15Q168.69-0.15 168.04-0.05L168.04-0.05 166.94 0 166.79 0Q166.34 0 166.29-0.05L166.29-0.05Q166.24-0.1 166.22-0.13 166.19-0.15 166.19-0.15L166.19-0.15 166.04-0.15Q165.99-0.1 165.97-0.05 165.94 0 165.94 0L165.94 0 160.94 0 160.69 0 160.19 0 159.59 0Q159.44 0.05 159.19 0.05L159.19 0.05Q158.99 0.05 158.84-0.25L158.84-0.25Q158.49-1.15 158.44-2.4L158.44-2.4Q158.34-3 158.24-4.15L158.24-4.15Q157.79-1.6 155.09-0.2L155.09-0.2Q152.64 1.15 148.94 1.15L148.94 1.15ZM202.69 1.7Q202.49 1.7 202.34 1.65L202.34 1.65Q201.59 1.2 201.09 0.65L201.09 0.65Q200.94 0.4 200.89 0.4L200.89 0.4Q200.84 0.3 200.74 0.3L200.74 0.3 200.64 0.25Q200.44 0.05 200.44 0.05L200.44 0.05 196.19-6.25Q195.89-6.9 195.34-7.65L195.34-7.65Q194.99-8 194.74-8.4L194.74-8.4Q194.54-8.7 194.34-8.7L194.34-8.7Q194.19-8.7 194.12-8.55 194.04-8.4 193.99-8.15L193.99-8.15Q193.84-6.8 193.84-4.5L193.84-4.5Q193.84-2.3 193.59-0.95L193.59-0.95Q193.44-0.3 193.14-0.3L193.14-0.3 192.84-0.3Q192.74-0.35 192.67-0.38 192.59-0.4 192.59-0.4L192.59-0.4Q190.84-0.25 187.34-0.05L187.34-0.05Q183.94 0.15 182.14 0.15L182.14 0.15Q181.64 0.15 181.34 0.05L181.34 0.05 180.24 0.05 179.34 0.05 178.89 0.05 177.09-0.55 176.94-0.95Q176.94-1 176.92-1.15 176.89-1.3 176.89-1.55L176.89-1.55Q176.89-1.85 176.79-2.65L176.79-2.65Q176.54-5.7 176.59-5.05L176.59-5.05Q176.49-6.35 176.24-9.55L176.24-9.55 176.09-11.4Q176.09-12.3 176.04-13 175.99-13.7 175.94-14.2L175.94-14.2 175.84-15.3Q175.69-17.35 175.69-19.15L175.69-19.15Q175.69-19.2 175.72-19.3 175.74-19.4 175.74-19.7L175.74-19.7Q175.84-20 175.84-20.65L175.84-20.65 175.89-21.55 175.94-22.15Q175.94-23.2 175.84-25.2L175.84-25.2Q175.64-26.45 175.64-28.4L175.64-28.4Q175.64-31.2 175.99-32.5L175.99-32.5Q176.44-34.3 177.49-34.3L177.49-34.3Q183.14-34.3 188.99-34.15L188.99-34.15Q190.29-34.15 192.89-34.05L192.89-34.05 194.84-34Q198.84-33.9 200.39-33.9L200.39-33.9Q206.84-33.6 210.14-30.65L210.14-30.65Q211.64-29.4 212.37-27.65 213.09-25.9 213.09-23.9L213.09-23.9Q213.09-21.6 212.24-19.65L212.24-19.65Q211.54-18.1 210.24-16.8L210.24-16.8Q208.99-15.55 207.39-14.8L207.39-14.8Q207.69-14.65 208.19-14.15L208.19-14.15Q208.39-13.9 208.89-13.5L208.89-13.5 209.59-13Q209.74-12.75 209.94-12.53 210.14-12.3 210.34-12.05L210.34-12.05 212.69-9.15Q214.29-7.1 214.74-6.15L214.74-6.15Q215.09-5.5 215.09-5.15L215.09-5.15Q215.09-4.65 214.69-4.25 214.29-3.85 213.49-3.25L213.49-3.25Q212.89-2.8 212.09-2.4L212.09-2.4Q211.34-2 210.94-1.65L210.94-1.65 209.09-0.65Q208.09-0.1 206.94 0.3L206.94 0.3Q206.89 0.3 206.82 0.35 206.74 0.4 206.59 0.45L206.59 0.45Q206.29 0.6 204.94 1L204.94 1Q204.69 1.15 204.09 1.25L204.09 1.25Q203.94 1.35 203.74 1.4 203.54 1.45 203.44 1.45L203.44 1.45 203.19 1.45Q203.14 1.7 202.99 1.7L202.99 1.7 202.84 1.7 202.69 1.7ZM193.74-15.95L194.49-15.95Q196.04-15.95 196.94-17.5L196.94-17.5Q197.79-18.9 197.89-20.7L197.89-20.7Q197.99-21.75 197.99-23.2L197.99-23.2 197.99-23.75Q197.99-24.9 197.59-26.15L197.59-26.15Q197.19-27.75 195.94-28.45L195.94-28.45Q195.39-28.9 194.49-28.9L194.49-28.9Q194.24-28.9 194.09-28.3L194.09-28.3Q193.64-27.2 193.59-24.8L193.59-24.8Q193.39-23.8 193.39-22.45L193.39-22.45 193.34-20.95Q193.24-18.05 193.24-16.15L193.24-16.15Q193.24-16.1 193.29-16.05 193.34-16 193.39-16L193.39-16 193.74-15.95ZM238.49 1.2Q232.54 1.2 229.09 0.25L229.09 0.25Q224.29-1 221.79-4.4L221.79-4.4Q218.89-8.45 218.89-15.65L218.89-15.65Q218.89-20.8 220.04-24.4 221.19-28 223.59-30.3L223.59-30.3Q225.99-32.6 229.76-33.68 233.54-34.75 238.99-34.75L238.99-34.75Q243.24-34.75 246.99-33.45L246.99-33.45Q251.59-31.8 254.14-28.4L254.14-28.4Q257.29-24.35 257.29-17.75L257.29-17.75Q257.29-10.05 254.99-5.75L254.99-5.75Q252.69-1.8 248.34-0.15L248.34-0.15Q244.79 1.2 238.49 1.2L238.49 1.2ZM238.09-3.65Q238.69-3.65 239.04-4.4L239.04-4.4Q239.79-6 240.09-9.45L240.09-9.45Q240.39-12.6 240.39-15.4L240.39-15.4 240.39-17.4 240.39-18.65Q240.39-20.85 240.09-24L240.09-24Q239.79-27.4 239.04-29.15L239.04-29.15Q238.64-30 238.09-30L238.09-30Q236.99-30 236.49-27.9L236.49-27.9Q235.99-25 235.99-22.65L235.99-22.65Q235.84-20.65 235.84-16.4L235.84-16.4Q235.84-13.55 235.99-11.7L235.99-11.7Q235.99-9.35 236.49-6.25L236.49-6.25Q236.99-3.65 238.09-3.65L238.09-3.65ZM281.44 1.2Q275.49 1.2 272.04 0.25L272.04 0.25Q267.24-1 264.74-4.4L264.74-4.4Q261.84-8.45 261.84-15.65L261.84-15.65Q261.84-20.8 262.99-24.4 264.14-28 266.54-30.3L266.54-30.3Q268.94-32.6 272.71-33.68 276.49-34.75 281.94-34.75L281.94-34.75Q286.19-34.75 289.94-33.45L289.94-33.45Q294.54-31.8 297.09-28.4L297.09-28.4Q300.24-24.35 300.24-17.75L300.24-17.75Q300.24-10.05 297.94-5.75L297.94-5.75Q295.64-1.8 291.29-0.15L291.29-0.15Q287.74 1.2 281.44 1.2L281.44 1.2ZM281.04-3.65Q281.64-3.65 281.99-4.4L281.99-4.4Q282.74-6 283.04-9.45L283.04-9.45Q283.34-12.6 283.34-15.4L283.34-15.4 283.34-17.4 283.34-18.65Q283.34-20.85 283.04-24L283.04-24Q282.74-27.4 281.99-29.15L281.99-29.15Q281.59-30 281.04-30L281.04-30Q279.94-30 279.44-27.9L279.44-27.9Q278.94-25 278.94-22.65L278.94-22.65Q278.79-20.65 278.79-16.4L278.79-16.4Q278.79-13.55 278.94-11.7L278.94-11.7Q278.94-9.35 279.44-6.25L279.44-6.25Q279.94-3.65 281.04-3.65L281.04-3.65ZM306.98-0.05Q306.13-0.05 305.88-1.15L305.88-1.15Q305.63-1.7 305.63-3.15L305.63-3.15Q305.63-7.5 305.53-10.9L305.53-10.9Q305.38-15.8 305.38-21.25L305.38-21.25 305.38-32.25Q305.38-32.7 305.81-33.13 306.23-33.55 306.68-33.55L306.68-33.55 312.43-33.5Q314.03-33.45 316.63-33.45L316.63-33.45Q320.38-33.45 322.43-33.5L322.43-33.5 324.28-33.55Q327.28-33.65 329.23-33.65L329.23-33.65Q332.38-33.65 335.23-32.75L335.23-32.75Q338.58-31.75 340.68-29.3L340.68-29.3Q343.03-26.65 343.03-22.15L343.03-22.15Q343.03-14.55 339.18-11.15L339.18-11.15Q335.78-7.95 329.03-7.95L329.03-7.95 322.18-7.95Q322.23-6.8 322.23-5.5L322.23-5.5Q322.23-5.05 322.21-4.42 322.18-3.8 322.18-2.75L322.18-2.75Q322.18-1.1 321.48-0.65L321.48-0.65Q320.93-0.2 319.43-0.2L319.43-0.2Q317.23-0.2 316.38-0.15L316.38-0.15Q312.93-0.15 310.88-0.05L310.88-0.05 306.98-0.05ZM323.48-13.95L324.88-13.95Q325.93-13.95 326.43-15.95L326.43-15.95Q326.83-17.3 327.03-19.95L327.03-19.95Q327.13-21.4 327.13-23.2L327.13-23.2 327.13-23.75Q327.13-24.55 326.88-26.15L326.88-26.15Q326.68-27.05 326.43-27.58 326.18-28.1 325.78-28.45L325.78-28.45Q325.38-28.9 324.88-28.9L324.88-28.9Q324.63-28.9 324.46-28.7 324.28-28.5 324.13-28.2L324.13-28.2Q323.58-27.3 323.13-24.2L323.13-24.2Q322.98-23.3 322.88-21.5L322.88-21.5Q322.63-18.75 322.63-14.15L322.63-14.15Q322.63-14.15 322.68-14.1 322.73-14.05 322.88-14L322.88-14 323.48-13.95ZM361.23 1.2Q357.68 1.2 354.08 0.4L354.08 0.4Q350.53-0.45 348.23-1.9L348.23-1.9Q347.63-3.7 347.33-5.5 347.03-7.3 346.58-10.65L346.58-10.65 346.58-10.8Q346.68-11.4 347.23-11.7L347.23-11.7Q349.13-10.55 350.88-9.98 352.63-9.4 354.73-9.4L354.73-9.4 355.93-9.4 356.73-9.35Q357.88-9.35 359.08-9.7L359.08-9.7Q359.73-9.95 359.98-10.65L359.98-10.65 357.33-11.95Q354.28-13.4 351.83-15.05L351.83-15.05Q349.28-16.9 348.18-19.75L348.18-19.75Q347.63-21.3 347.63-23.15L347.63-23.15Q347.63-27.65 350.38-30.4L350.38-30.4Q352.78-32.85 356.88-33.9L356.88-33.9Q360.43-34.75 364.68-34.75L364.68-34.75Q367.18-34.75 371.58-34.2L371.58-34.2Q372.03-34.1 372.83-34L372.83-34 374.33-33.7Q376.03-33.4 376.83-33.4L376.83-33.4Q376.88-33.4 377-33.25 377.13-33.1 377.23-33L377.23-33Q377.43-32.65 377.63-32.65L377.63-32.65 377.68-32.65 377.73-32.65 377.83-31.6Q377.83-30.85 377.98-30L377.98-30Q378.13-28.75 378.13-27.3L378.13-27.3Q378.13-26.05 377.98-25.5L377.98-25.5Q377.73-24.5 377.08-24.05L377.08-24.05 372.43-24.65 371.93-24.65 371.23-24.65Q369.53-24.65 367.33-24.3L367.33-24.3 365.68-23.95Q365.08-23.85 365.08-23.75L365.08-23.75Q365.08-22.55 366.63-21.5L366.63-21.5Q367.38-21.1 368.13-20.83 368.88-20.55 369.08-20.45L369.08-20.45Q372.78-19.4 375.48-16.8L375.48-16.8Q376.73-15.6 377.43-14.25 378.13-12.9 378.13-11.65L378.13-11.65Q378.13-10.9 377.93-10.05L377.93-10.05Q377.58-6.3 375.08-3.55L375.08-3.55Q372.63-1.1 368.93 0.05L368.93 0.05Q365.73 1.2 361.23 1.2L361.23 1.2Z" opacity="1" transform="matrix(1,0,0,1,0,0)" fill="black" class="wordmark-text-0" id="SvgjsPath1116" stroke-width="5" stroke="black" stroke-linejoin="round"></path></svg></g></svg></g></svg></g></svg></g></svg></g></svg></g></svg></g></mask><g mask="url(#de928976-db63-4105-914d-076539200fe4)"><g><path xmlns="http://www.w3.org/2000/svg" d="M248.058 247.2c-0.916 0-1.717-0.114-2.403-0.343v0c-3.433-2.06-6.294-4.349-8.583-6.867v0c-0.687-1.144-1.144-1.717-1.374-1.717v0c-0.229-0.458-0.572-0.687-1.03-0.686v0l-0.686-0.344c-0.916-0.916-1.373-1.373-1.374-1.373v0l-29.183-43.26c-1.373-2.976-3.319-6.18-5.837-9.613v0c-1.602-1.602-2.976-3.319-4.12-5.15v0c-0.916-1.373-1.831-2.06-2.746-2.06v0c-0.687 0-1.19 0.343-1.511 1.03-0.366 0.687-0.664 1.602-0.893 2.746v0c-0.687 6.18-1.03 14.534-1.03 25.064v0c0 10.071-0.572 18.197-1.716 24.376v0c-0.687 2.976-1.717 4.463-3.09 4.464v0h-2.06c-0.458-0.229-0.847-0.412-1.168-0.55-0.366-0.092-0.549-0.137-0.549-0.137v0c-8.011 0.687-20.028 1.488-36.05 2.403v0c-15.564 0.916-27.467 1.373-35.707 1.374v0c-2.289 0-4.12-0.229-5.493-0.687v0h-7.553-6.18-3.09l-12.36-4.12-1.03-2.747c0-0.229-0.046-0.687-0.138-1.373-0.137-0.687-0.206-1.602-0.206-2.747v0c0-1.373-0.229-3.891-0.686-7.553v0c-1.144-13.962-1.602-19.456-1.374-16.48v0c-0.458-5.951-1.259-16.251-2.403-30.9v0l-1.03-12.703c0-4.12-0.114-7.782-0.343-10.987-0.229-3.204-0.458-5.951-0.687-8.24v0l-0.687-7.553c-0.687-9.384-1.03-18.197-1.03-26.437v0c0-0.229 0.069-0.572 0.206-1.03 0.092-0.458 0.137-1.373 0.138-2.747v0c0.458-1.373 0.687-3.548 0.686-6.523v0l0.344-6.18 0.343-4.12c0-4.807-0.229-11.788-0.687-20.943v0c-0.916-5.722-1.373-13.047-1.373-21.974v0c0-12.818 0.801-22.202 2.403-28.153v0c2.06-8.24 5.493-12.36 10.3-12.36v0c25.864 0 52.187 0.343 78.967 1.03v0c5.951 0 14.878 0.229 26.78 0.687v0l13.39 0.343c18.311 0.458 31.014 0.687 38.11 0.687v0c29.527 1.373 51.843 8.812 66.95 22.316v0c6.867 5.722 11.971 12.589 15.313 20.6 3.296 8.011 4.944 16.594 4.944 25.75v0c0 10.529-1.946 20.257-5.837 29.184v0c-3.204 7.096-7.782 13.619-13.733 19.57v0c-5.722 5.722-12.246 10.3-19.57 13.733v0c1.373 0.687 3.204 2.174 5.493 4.463v0c0.916 1.144 2.518 2.632 4.807 4.464v0l4.806 3.433c0.687 1.144 1.488 2.22 2.404 3.227 0.916 1.053 1.831 2.152 2.746 3.296v0l16.137 19.914c7.324 9.384 12.017 16.251 14.077 20.6v0c1.602 2.976 2.403 5.264 2.403 6.866v0c0 2.289-0.916 4.349-2.747 6.18-1.831 1.831-4.578 4.12-8.24 6.867v0c-2.747 2.06-5.951 4.006-9.613 5.837v0c-3.433 1.831-6.066 3.548-7.897 5.15v0l-12.703 6.866c-4.578 2.518-9.499 4.692-14.763 6.524v0c-0.229 0-0.504 0.114-0.824 0.343-0.366 0.229-0.893 0.458-1.58 0.687v0c-1.373 0.687-5.15 1.946-11.33 3.776v0c-1.144 0.687-3.09 1.259-5.836 1.717v0c-0.687 0.458-1.488 0.801-2.404 1.03-0.916 0.229-1.602 0.343-2.06 0.343v0h-1.716c-0.229 1.144-0.687 1.717-1.374 1.717v0h-1.03zM186.602 126.003h5.15c7.096 0 12.703-3.548 16.823-10.643v0c3.891-6.409 6.066-13.733 6.523-21.973v0c0.458-4.807 0.687-10.529 0.687-17.167v0-3.777c0-5.264-0.916-10.758-2.747-16.48v0c-1.831-7.324-5.608-12.589-11.33-15.793v0c-2.518-2.06-5.837-3.09-9.956-3.09v0c-1.144 0-2.06 1.373-2.747 4.12v0c-2.06 5.036-3.204 13.047-3.433 24.033v0c-0.916 4.578-1.373 9.957-1.374 16.137v0l-0.343 10.3c-0.458 13.276-0.687 24.262-0.687 32.96v0c0 0.229 0.114 0.458 0.344 0.687 0.229 0.229 0.458 0.343 0.686 0.343v0z" fill="#1e55b3" fill-rule="nonzero" stroke="none" stroke-width="1" stroke-linecap="butt" stroke-linejoin="miter" stroke-miterlimit="10" stroke-dasharray="" stroke-dashoffset="0" font-family="none" font-weight="none" font-size="none" text-anchor="none" style="mix-blend-mode: normal" data-fill-palette-color="tertiary"></path></g></g><g transform="matrix(1,0,0,1,0,102.05406229465106)"><svg viewBox="0 0 395.52 43.09187541069785" height="43.09187541069785" width="395.52"><g><svg viewBox="0 0 395.52 43.09187541069785" height="43.09187541069785" width="395.52"><g><svg viewBox="0 0 395.52 43.09187541069785" height="43.09187541069785" width="395.52"><g><svg viewBox="0 0 395.52 43.09187541069785" height="43.09187541069785" width="395.52"><g id="textblocktransform"><svg viewBox="0 0 395.52 43.09187541069785" height="43.09187541069785" width="395.52" id="textblock"><g><svg viewBox="0 0 395.52 43.09187541069785" height="43.09187541069785" width="395.52"><g transform="matrix(1,0,0,1,0,0)"><svg width="395.52" viewBox="-0.2999999523162842 -37.75 381.42999267578125 42.45000076293945" height="43.09187541069785" data-palette-color="#1e55b3"><path d="M29.75 1.7Q29.55 1.7 29.4 1.65L29.4 1.65Q28.65 1.2 28.15 0.65L28.15 0.65Q28 0.4 27.95 0.4L27.95 0.4Q27.9 0.3 27.8 0.3L27.8 0.3 27.7 0.25Q27.5 0.05 27.5 0.05L27.5 0.05 23.25-6.25Q22.95-6.9 22.4-7.65L22.4-7.65Q22.05-8 21.8-8.4L21.8-8.4Q21.6-8.7 21.4-8.7L21.4-8.7Q21.25-8.7 21.18-8.55 21.1-8.4 21.05-8.15L21.05-8.15Q20.9-6.8 20.9-4.5L20.9-4.5Q20.9-2.3 20.65-0.95L20.65-0.95Q20.5-0.3 20.2-0.3L20.2-0.3 19.9-0.3Q19.8-0.35 19.73-0.38 19.65-0.4 19.65-0.4L19.65-0.4Q17.9-0.25 14.4-0.05L14.4-0.05Q11 0.15 9.2 0.15L9.2 0.15Q8.7 0.15 8.4 0.05L8.4 0.05 7.3 0.05 6.4 0.05 5.95 0.05 4.15-0.55 4-0.95Q4-1 3.98-1.15 3.95-1.3 3.95-1.55L3.95-1.55Q3.95-1.85 3.85-2.65L3.85-2.65Q3.6-5.7 3.65-5.05L3.65-5.05Q3.55-6.35 3.3-9.55L3.3-9.55 3.15-11.4Q3.15-12.3 3.1-13 3.05-13.7 3-14.2L3-14.2 2.9-15.3Q2.75-17.35 2.75-19.15L2.75-19.15Q2.75-19.2 2.78-19.3 2.8-19.4 2.8-19.7L2.8-19.7Q2.9-20 2.9-20.65L2.9-20.65 2.95-21.55 3-22.15Q3-23.2 2.9-25.2L2.9-25.2Q2.7-26.45 2.7-28.4L2.7-28.4Q2.7-31.2 3.05-32.5L3.05-32.5Q3.5-34.3 4.55-34.3L4.55-34.3Q10.2-34.3 16.05-34.15L16.05-34.15Q17.35-34.15 19.95-34.05L19.95-34.05 21.9-34Q25.9-33.9 27.45-33.9L27.45-33.9Q33.9-33.6 37.2-30.65L37.2-30.65Q38.7-29.4 39.43-27.65 40.15-25.9 40.15-23.9L40.15-23.9Q40.15-21.6 39.3-19.65L39.3-19.65Q38.6-18.1 37.3-16.8L37.3-16.8Q36.05-15.55 34.45-14.8L34.45-14.8Q34.75-14.65 35.25-14.15L35.25-14.15Q35.45-13.9 35.95-13.5L35.95-13.5 36.65-13Q36.8-12.75 37-12.53 37.2-12.3 37.4-12.05L37.4-12.05 39.75-9.15Q41.35-7.1 41.8-6.15L41.8-6.15Q42.15-5.5 42.15-5.15L42.15-5.15Q42.15-4.65 41.75-4.25 41.35-3.85 40.55-3.25L40.55-3.25Q39.95-2.8 39.15-2.4L39.15-2.4Q38.4-2 38-1.65L38-1.65 36.15-0.65Q35.15-0.1 34 0.3L34 0.3Q33.95 0.3 33.88 0.35 33.8 0.4 33.65 0.45L33.65 0.45Q33.35 0.6 32 1L32 1Q31.75 1.15 31.15 1.25L31.15 1.25Q31 1.35 30.8 1.4 30.6 1.45 30.5 1.45L30.5 1.45 30.25 1.45Q30.2 1.7 30.05 1.7L30.05 1.7 29.9 1.7 29.75 1.7ZM20.8-15.95L21.55-15.95Q23.1-15.95 24-17.5L24-17.5Q24.85-18.9 24.95-20.7L24.95-20.7Q25.05-21.75 25.05-23.2L25.05-23.2 25.05-23.75Q25.05-24.9 24.65-26.15L24.65-26.15Q24.25-27.75 23-28.45L23-28.45Q22.45-28.9 21.55-28.9L21.55-28.9Q21.3-28.9 21.15-28.3L21.15-28.3Q20.7-27.2 20.65-24.8L20.65-24.8Q20.45-23.8 20.45-22.45L20.45-22.45 20.4-20.95Q20.3-18.05 20.3-16.15L20.3-16.15Q20.3-16.1 20.35-16.05 20.4-16 20.45-16L20.45-16 20.8-15.95ZM56.9 1.15Q52.15 1.15 49.7-1.05L49.7-1.05Q47.65-2.8 46.9-6.65L46.9-6.65Q46.4-9.2 46.4-14.3L46.4-14.3Q46.4-18 46.8-22.4L46.8-22.4Q46.8-23.1 46.9-24.4L46.9-24.4Q46.95-25.45 47-27.38 47.05-29.3 47.05-30.75L47.05-30.75Q47.05-31.5 46.95-31.8L46.95-31.8Q46.85-32.5 46.85-32.9L46.85-32.9Q46.85-33.7 48.55-33.7L48.55-33.7 51.55-33.7Q54.75-33.8 57.7-33.5L57.7-33.5Q59.75-33.3 60.85-33.05L60.85-33.05Q62.2-32.7 62.65-32.05L62.65-32.05Q63.05-31.3 63.05-29.45L63.05-29.45Q63.05-27.2 63-25.33 62.95-23.45 62.9-22L62.9-22Q62.85-21.65 62.85-20.9L62.85-20.9Q62.85-19.9 62.75-17.5L62.75-17.5Q62.65-13.1 62.65-10.15L62.65-10.15Q62.65-8.3 62.8-7.45L62.8-7.45Q62.95-6.65 63.6-6.65L63.6-6.65Q64.95-6.65 66.55-7.3L66.55-7.3Q67.55-7.8 67.95-8.05L67.95-8.05 67.95-28.15Q67.8-29.3 67.8-30.4L67.8-30.4Q67.7-30.7 67.7-31.25L67.7-31.25 67.7-31.7Q67.7-32.6 68.05-32.95L68.05-32.95Q68.4-33.25 69.7-33.25L69.7-33.25Q71.15-33.25 73.45-33.4L73.45-33.4Q74.25-33.4 75.65-33.5L75.65-33.5Q76.65-33.5 77.1-33.65L77.1-33.65Q77.4-33.65 77.8-33.55L77.8-33.55Q78.4-33.55 78.8-33.5L78.8-33.5 80.3-33.45Q81.4-33.4 83.05-33.05L83.05-33.05 84.45-32.65Q84.9-32.5 85.02-32.3 85.15-32.1 85.15-31.8L85.15-31.8Q85.15-24.4 84.85-16.95L84.85-16.95Q84.55-7.15 84.55-2.15L84.55-2.15Q84.55-0.15 82.65-0.15L82.65-0.15 80.1-0.15Q79.1-0.05 76.45 0.05L76.45 0.05Q74.95 0.15 74.1 0.15L74.1 0.15 71.8 0.25Q70.45 0.25 69.75-0.2 69.05-0.65 68.8-1.75L68.8-1.75Q66.1-0.4 63.1 0.4L63.1 0.4Q60.1 1.15 56.9 1.15L56.9 1.15ZM97.2 0.15Q96.7 0.15 96.35 0.05L96.35 0.05 95.35 0.05 94.55 0.05 94.1 0.05 91.85-0.5 91.7-0.9Q91.65-0.9 91.65-1.45L91.65-1.45Q91.55-2.95 91.55-4.9L91.55-4.9Q91.55-6.3 91.45-7.15L91.45-7.15Q91.45-8.55 91.4-9.25L91.4-9.25 91.4-11Q91.15-13.3 91.1-16.05 91.05-18.8 91.05-21.4L91.05-21.4 91.15-26.5Q91.2-27.35 91.2-29.1L91.2-29.1Q91.2-30.85 91.15-31.7L91.15-31.7Q91-32.85 91.8-33.4L91.8-33.4Q92.3-33.65 93.55-33.65L93.55-33.65Q95.4-33.65 98.3-33.75L98.3-33.75 99.4-33.85Q102.4-34.05 103.15-34.05L103.15-34.05Q103.85-34.05 104.15-34L104.15-34Q104.85-33.95 105.1-33.8 105.35-33.65 105.57-33.3 105.8-32.95 105.9-32.75L105.9-32.75Q106.5-31.95 107.1-31.05L107.1-31.05Q108-29.7 108.55-28.95L108.55-28.95 111.85-23.9 113.45-21.5Q113.45-22.8 113.55-23.55L113.55-23.55 113.55-28.2 113.7-31.75Q113.75-32.15 113.8-32.3 113.85-32.45 113.95-32.52 114.05-32.6 114.1-32.65L114.1-32.65Q114.7-33.15 115.3-33.4L115.3-33.4Q115.8-33.5 116.1-33.5L116.1-33.5 118.95-33.5 119.55-33.5Q119.95-33.45 120.95-33.45L120.95-33.45Q122.05-33.45 122.7-33.4L122.7-33.4 124.4-33.4 125.8-33.4 126.4-33.4Q127.7-33.4 128.15-33L128.15-33Q128.7-32.6 128.7-31.25L128.7-31.25 128.65-30.75 128.6-29.95Q128.55-29.65 128.55-29.15L128.55-29.15 128.55-28.55 128.55-28.15 128.65-27.65 128.65-26.05Q128.6-25.2 128.6-23.15L128.6-23.15 128.6-19.45Q128.55-18.15 128.55-15.8L128.55-15.8 128.55-12.9 128.55-11.2 128.55-3.3 128.35-1.4Q128.15-0.25 127.55 0L127.55 0 126.7 0.05 125.85 0 123.6 0 120.65 0 117.6 0 116.85 0Q115.85 0.1 114.9-0.25L114.9-0.25Q114.45-0.45 113.9-0.9L113.9-0.9 108.8-8.05Q108.8-8.1 107.7-9.9L107.7-9.9Q107.3-10.5 106.95-10.95L106.95-10.95Q106.85-11.15 106.72-11.28 106.6-11.4 106.55-11.4L106.55-11.4Q106.1-11.4 106.1-11L106.1-11 106.1-9.9Q106.05-9.4 106.05-8.25L106.05-8.25 106.05-6.3 106.05-4.4Q105.95-3.8 105.95-2.9L105.95-2.9 105.95-1.9 105.95-1.15 106-0.9Q106-0.5 105.6-0.4L105.6-0.4Q105.35-0.2 104.8-0.3L104.8-0.3Q103.1-0.2 102.1-0.1L102.1-0.1Q101.5-0.05 100 0.05 98.5 0.15 97.2 0.15L97.2 0.15ZM148.94 1.15Q145.04 1.15 141.94-0.65L141.94-0.65Q138.44-2.35 136.19-6.25L136.19-6.25Q133.69-10.65 133.69-16.65L133.69-16.65Q133.69-20.9 135.19-24.3 136.69-27.7 139.49-30.05L139.49-30.05Q142.24-32.35 145.94-33.55 149.64-34.75 153.99-34.75L153.99-34.75Q160.39-34.75 167.19-31.5L167.19-31.5 165.24-23Q164.89-23.1 164.42-23.25 163.94-23.4 163.34-23.55L163.34-23.55Q160.59-24.25 159.29-24.45L159.29-24.45Q158.09-24.65 157.34-24.65L157.34-24.65Q154.19-24.65 152.54-22.95L152.54-22.95Q150.59-21 150.59-16.4L150.59-16.4Q150.59-12.2 151.84-10.4L151.84-10.4Q152.89-8.7 154.94-8.7L154.94-8.7Q156.24-8.7 157.94-9.4L157.94-9.4Q157.94-10.2 157.84-11.8L157.84-11.8 157.79-12.9Q157.74-14.05 157.74-16.3L157.74-16.3 157.74-17.65Q157.74-18.1 157.89-18.28 158.04-18.45 158.44-18.45L158.44-18.45Q158.59-18.4 159.29-18.4L159.29-18.4 164.59-18.4Q166.94-18.4 167.69-18.45L167.69-18.45Q169.04-18.45 169.44-18.4L169.44-18.4Q170.09-18.25 170.32-17.93 170.54-17.6 170.54-16.9L170.54-16.9Q170.54-16.65 170.59-16.45L170.59-16.45 170.59-16 170.59-15.2 170.59-13.7 170.59-8.65 170.59-8.4Q170.54-8.2 170.49-7.95 170.44-7.7 170.44-7.4L170.44-7.4 170.44-7.15Q170.44-4 170.34-2.75L170.34-2.75Q170.24-0.7 169.99-0.15L169.99-0.15Q168.69-0.15 168.04-0.05L168.04-0.05 166.94 0 166.79 0Q166.34 0 166.29-0.05L166.29-0.05Q166.24-0.1 166.22-0.13 166.19-0.15 166.19-0.15L166.19-0.15 166.04-0.15Q165.99-0.1 165.97-0.05 165.94 0 165.94 0L165.94 0 160.94 0 160.69 0 160.19 0 159.59 0Q159.44 0.05 159.19 0.05L159.19 0.05Q158.99 0.05 158.84-0.25L158.84-0.25Q158.49-1.15 158.44-2.4L158.44-2.4Q158.34-3 158.24-4.15L158.24-4.15Q157.79-1.6 155.09-0.2L155.09-0.2Q152.64 1.15 148.94 1.15L148.94 1.15ZM202.69 1.7Q202.49 1.7 202.34 1.65L202.34 1.65Q201.59 1.2 201.09 0.65L201.09 0.65Q200.94 0.4 200.89 0.4L200.89 0.4Q200.84 0.3 200.74 0.3L200.74 0.3 200.64 0.25Q200.44 0.05 200.44 0.05L200.44 0.05 196.19-6.25Q195.89-6.9 195.34-7.65L195.34-7.65Q194.99-8 194.74-8.4L194.74-8.4Q194.54-8.7 194.34-8.7L194.34-8.7Q194.19-8.7 194.12-8.55 194.04-8.4 193.99-8.15L193.99-8.15Q193.84-6.8 193.84-4.5L193.84-4.5Q193.84-2.3 193.59-0.95L193.59-0.95Q193.44-0.3 193.14-0.3L193.14-0.3 192.84-0.3Q192.74-0.35 192.67-0.38 192.59-0.4 192.59-0.4L192.59-0.4Q190.84-0.25 187.34-0.05L187.34-0.05Q183.94 0.15 182.14 0.15L182.14 0.15Q181.64 0.15 181.34 0.05L181.34 0.05 180.24 0.05 179.34 0.05 178.89 0.05 177.09-0.55 176.94-0.95Q176.94-1 176.92-1.15 176.89-1.3 176.89-1.55L176.89-1.55Q176.89-1.85 176.79-2.65L176.79-2.65Q176.54-5.7 176.59-5.05L176.59-5.05Q176.49-6.35 176.24-9.55L176.24-9.55 176.09-11.4Q176.09-12.3 176.04-13 175.99-13.7 175.94-14.2L175.94-14.2 175.84-15.3Q175.69-17.35 175.69-19.15L175.69-19.15Q175.69-19.2 175.72-19.3 175.74-19.4 175.74-19.7L175.74-19.7Q175.84-20 175.84-20.65L175.84-20.65 175.89-21.55 175.94-22.15Q175.94-23.2 175.84-25.2L175.84-25.2Q175.64-26.45 175.64-28.4L175.64-28.4Q175.64-31.2 175.99-32.5L175.99-32.5Q176.44-34.3 177.49-34.3L177.49-34.3Q183.14-34.3 188.99-34.15L188.99-34.15Q190.29-34.15 192.89-34.05L192.89-34.05 194.84-34Q198.84-33.9 200.39-33.9L200.39-33.9Q206.84-33.6 210.14-30.65L210.14-30.65Q211.64-29.4 212.37-27.65 213.09-25.9 213.09-23.9L213.09-23.9Q213.09-21.6 212.24-19.65L212.24-19.65Q211.54-18.1 210.24-16.8L210.24-16.8Q208.99-15.55 207.39-14.8L207.39-14.8Q207.69-14.65 208.19-14.15L208.19-14.15Q208.39-13.9 208.89-13.5L208.89-13.5 209.59-13Q209.74-12.75 209.94-12.53 210.14-12.3 210.34-12.05L210.34-12.05 212.69-9.15Q214.29-7.1 214.74-6.15L214.74-6.15Q215.09-5.5 215.09-5.15L215.09-5.15Q215.09-4.65 214.69-4.25 214.29-3.85 213.49-3.25L213.49-3.25Q212.89-2.8 212.09-2.4L212.09-2.4Q211.34-2 210.94-1.65L210.94-1.65 209.09-0.65Q208.09-0.1 206.94 0.3L206.94 0.3Q206.89 0.3 206.82 0.35 206.74 0.4 206.59 0.45L206.59 0.45Q206.29 0.6 204.94 1L204.94 1Q204.69 1.15 204.09 1.25L204.09 1.25Q203.94 1.35 203.74 1.4 203.54 1.45 203.44 1.45L203.44 1.45 203.19 1.45Q203.14 1.7 202.99 1.7L202.99 1.7 202.84 1.7 202.69 1.7ZM193.74-15.95L194.49-15.95Q196.04-15.95 196.94-17.5L196.94-17.5Q197.79-18.9 197.89-20.7L197.89-20.7Q197.99-21.75 197.99-23.2L197.99-23.2 197.99-23.75Q197.99-24.9 197.59-26.15L197.59-26.15Q197.19-27.75 195.94-28.45L195.94-28.45Q195.39-28.9 194.49-28.9L194.49-28.9Q194.24-28.9 194.09-28.3L194.09-28.3Q193.64-27.2 193.59-24.8L193.59-24.8Q193.39-23.8 193.39-22.45L193.39-22.45 193.34-20.95Q193.24-18.05 193.24-16.15L193.24-16.15Q193.24-16.1 193.29-16.05 193.34-16 193.39-16L193.39-16 193.74-15.95ZM238.49 1.2Q232.54 1.2 229.09 0.25L229.09 0.25Q224.29-1 221.79-4.4L221.79-4.4Q218.89-8.45 218.89-15.65L218.89-15.65Q218.89-20.8 220.04-24.4 221.19-28 223.59-30.3L223.59-30.3Q225.99-32.6 229.76-33.68 233.54-34.75 238.99-34.75L238.99-34.75Q243.24-34.75 246.99-33.45L246.99-33.45Q251.59-31.8 254.14-28.4L254.14-28.4Q257.29-24.35 257.29-17.75L257.29-17.75Q257.29-10.05 254.99-5.75L254.99-5.75Q252.69-1.8 248.34-0.15L248.34-0.15Q244.79 1.2 238.49 1.2L238.49 1.2ZM238.09-3.65Q238.69-3.65 239.04-4.4L239.04-4.4Q239.79-6 240.09-9.45L240.09-9.45Q240.39-12.6 240.39-15.4L240.39-15.4 240.39-17.4 240.39-18.65Q240.39-20.85 240.09-24L240.09-24Q239.79-27.4 239.04-29.15L239.04-29.15Q238.64-30 238.09-30L238.09-30Q236.99-30 236.49-27.9L236.49-27.9Q235.99-25 235.99-22.65L235.99-22.65Q235.84-20.65 235.84-16.4L235.84-16.4Q235.84-13.55 235.99-11.7L235.99-11.7Q235.99-9.35 236.49-6.25L236.49-6.25Q236.99-3.65 238.09-3.65L238.09-3.65ZM281.44 1.2Q275.49 1.2 272.04 0.25L272.04 0.25Q267.24-1 264.74-4.4L264.74-4.4Q261.84-8.45 261.84-15.65L261.84-15.65Q261.84-20.8 262.99-24.4 264.14-28 266.54-30.3L266.54-30.3Q268.94-32.6 272.71-33.68 276.49-34.75 281.94-34.75L281.94-34.75Q286.19-34.75 289.94-33.45L289.94-33.45Q294.54-31.8 297.09-28.4L297.09-28.4Q300.24-24.35 300.24-17.75L300.24-17.75Q300.24-10.05 297.94-5.75L297.94-5.75Q295.64-1.8 291.29-0.15L291.29-0.15Q287.74 1.2 281.44 1.2L281.44 1.2ZM281.04-3.65Q281.64-3.65 281.99-4.4L281.99-4.4Q282.74-6 283.04-9.45L283.04-9.45Q283.34-12.6 283.34-15.4L283.34-15.4 283.34-17.4 283.34-18.65Q283.34-20.85 283.04-24L283.04-24Q282.74-27.4 281.99-29.15L281.99-29.15Q281.59-30 281.04-30L281.04-30Q279.94-30 279.44-27.9L279.44-27.9Q278.94-25 278.94-22.65L278.94-22.65Q278.79-20.65 278.79-16.4L278.79-16.4Q278.79-13.55 278.94-11.7L278.94-11.7Q278.94-9.35 279.44-6.25L279.44-6.25Q279.94-3.65 281.04-3.65L281.04-3.65ZM306.98-0.05Q306.13-0.05 305.88-1.15L305.88-1.15Q305.63-1.7 305.63-3.15L305.63-3.15Q305.63-7.5 305.53-10.9L305.53-10.9Q305.38-15.8 305.38-21.25L305.38-21.25 305.38-32.25Q305.38-32.7 305.81-33.13 306.23-33.55 306.68-33.55L306.68-33.55 312.43-33.5Q314.03-33.45 316.63-33.45L316.63-33.45Q320.38-33.45 322.43-33.5L322.43-33.5 324.28-33.55Q327.28-33.65 329.23-33.65L329.23-33.65Q332.38-33.65 335.23-32.75L335.23-32.75Q338.58-31.75 340.68-29.3L340.68-29.3Q343.03-26.65 343.03-22.15L343.03-22.15Q343.03-14.55 339.18-11.15L339.18-11.15Q335.78-7.95 329.03-7.95L329.03-7.95 322.18-7.95Q322.23-6.8 322.23-5.5L322.23-5.5Q322.23-5.05 322.21-4.42 322.18-3.8 322.18-2.75L322.18-2.75Q322.18-1.1 321.48-0.65L321.48-0.65Q320.93-0.2 319.43-0.2L319.43-0.2Q317.23-0.2 316.38-0.15L316.38-0.15Q312.93-0.15 310.88-0.05L310.88-0.05 306.98-0.05ZM323.48-13.95L324.88-13.95Q325.93-13.95 326.43-15.95L326.43-15.95Q326.83-17.3 327.03-19.95L327.03-19.95Q327.13-21.4 327.13-23.2L327.13-23.2 327.13-23.75Q327.13-24.55 326.88-26.15L326.88-26.15Q326.68-27.05 326.43-27.58 326.18-28.1 325.78-28.45L325.78-28.45Q325.38-28.9 324.88-28.9L324.88-28.9Q324.63-28.9 324.46-28.7 324.28-28.5 324.13-28.2L324.13-28.2Q323.58-27.3 323.13-24.2L323.13-24.2Q322.98-23.3 322.88-21.5L322.88-21.5Q322.63-18.75 322.63-14.15L322.63-14.15Q322.63-14.15 322.68-14.1 322.73-14.05 322.88-14L322.88-14 323.48-13.95ZM361.23 1.2Q357.68 1.2 354.08 0.4L354.08 0.4Q350.53-0.45 348.23-1.9L348.23-1.9Q347.63-3.7 347.33-5.5 347.03-7.3 346.58-10.65L346.58-10.65 346.58-10.8Q346.68-11.4 347.23-11.7L347.23-11.7Q349.13-10.55 350.88-9.98 352.63-9.4 354.73-9.4L354.73-9.4 355.93-9.4 356.73-9.35Q357.88-9.35 359.08-9.7L359.08-9.7Q359.73-9.95 359.98-10.65L359.98-10.65 357.33-11.95Q354.28-13.4 351.83-15.05L351.83-15.05Q349.28-16.9 348.18-19.75L348.18-19.75Q347.63-21.3 347.63-23.15L347.63-23.15Q347.63-27.65 350.38-30.4L350.38-30.4Q352.78-32.85 356.88-33.9L356.88-33.9Q360.43-34.75 364.68-34.75L364.68-34.75Q367.18-34.75 371.58-34.2L371.58-34.2Q372.03-34.1 372.83-34L372.83-34 374.33-33.7Q376.03-33.4 376.83-33.4L376.83-33.4Q376.88-33.4 377-33.25 377.13-33.1 377.23-33L377.23-33Q377.43-32.65 377.63-32.65L377.63-32.65 377.68-32.65 377.73-32.65 377.83-31.6Q377.83-30.85 377.98-30L377.98-30Q378.13-28.75 378.13-27.3L378.13-27.3Q378.13-26.05 377.98-25.5L377.98-25.5Q377.73-24.5 377.08-24.05L377.08-24.05 372.43-24.65 371.93-24.65 371.23-24.65Q369.53-24.65 367.33-24.3L367.33-24.3 365.68-23.95Q365.08-23.85 365.08-23.75L365.08-23.75Q365.08-22.55 366.63-21.5L366.63-21.5Q367.38-21.1 368.13-20.83 368.88-20.55 369.08-20.45L369.08-20.45Q372.78-19.4 375.48-16.8L375.48-16.8Q376.73-15.6 377.43-14.25 378.13-12.9 378.13-11.65L378.13-11.65Q378.13-10.9 377.93-10.05L377.93-10.05Q377.58-6.3 375.08-3.55L375.08-3.55Q372.63-1.1 368.93 0.05L368.93 0.05Q365.73 1.2 361.23 1.2L361.23 1.2Z" opacity="1" transform="matrix(1,0,0,1,0,0)" fill="#1e55b3" class="wordmark-text-0" data-fill-palette-color="primary" id="text-0"></path></svg></g></svg></g></svg></g></svg></g></svg></g></svg></g></svg></g></svg></g><defs></defs></svg><rect width="395.52" height="247.2" fill="none" stroke="none" visibility="hidden"></rect></g></svg></g></svg>